<svg width="1024" height="1024" viewBox="0 0 1024 1024" fill="none" xmlns="http://www.w3.org/2000/svg">
  <defs>
    <filter id="shadow" x="80" y="60" width="864" height="884" filterUnits="userSpaceOnUse">
      <feDropShadow dx="0" dy="28" stdDeviation="24" flood-color="#111827" flood-opacity="0.22"/>
    </filter>
    <linearGradient id="body" x1="335" y1="274" x2="702" y2="742" gradientUnits="userSpaceOnUse">
      <stop stop-color="#FF7A59"/><stop offset="1" stop-color="#FF3D77"/>
    </linearGradient>
  </defs>
  <g filter="url(#shadow)">
    <path d="M512 108C632 108 706 183 728 279C823 300 879 378 853 470C904 550 869 641 788 675C781 773 707 838 611 830C548 899 442 898 381 829C286 837 211 773 205 675C123 640 89 550 140 470C114 378 170 300 265 279C287 182 392 108 512 108Z" fill="white"/>
    <path d="M512 157C608 157 668 218 686 315C772 322 821 381 800 454C849 518 822 589 751 616C756 702 690 766 604 759C556 827 463 826 420 758C333 766 268 702 273 616C201 589 175 518 224 454C202 381 252 322 338 315C356 218 416 157 512 157Z" fill="url(#body)" stroke="#172033" stroke-width="24" stroke-linejoin="round"/>
    <path d="M356 452C386 402 431 375 476 377" stroke="#172033" stroke-width="25" stroke-linecap="round"/>
    <path d="M548 377C593 375 638 402 668 452" stroke="#172033" stroke-width="25" stroke-linecap="round"/>
    <ellipse cx="421" cy="480" rx="24" ry="31" fill="#172033"/>
    <ellipse cx="603" cy="480" rx="24" ry="31" fill="#172033"/>
    <path d="M408 574C468 628 558 628 618 574" stroke="#172033" stroke-width="27" stroke-linecap="round"/>
    <path d="M448 607C478 638 548 638 578 607" fill="#FFF3D8"/>
    <path d="M307 334L247 255" stroke="#172033" stroke-width="26" stroke-linecap="round"/>
    <path d="M718 333L783 256" stroke="#172033" stroke-width="26" stroke-linecap="round"/>
    <circle cx="225" cy="230" r="25" fill="#F7D84A" stroke="#172033" stroke-width="18"/>
    <circle cx="804" cy="232" r="25" fill="#F7D84A" stroke="#172033" stroke-width="18"/>
  </g>
</svg>
